<svg xmlns="http://www.w3.org/2000/svg" viewBox="0 0 311.7 86"><defs><style>.cls-1{fill:#464646;}.cls-2{fill:#004e9a;}.cls-3{fill:#187bc0;}.cls-4{fill:#1ca6df;}.cls-5{fill:#de9027;}.cls-6{fill:#d15420;}.cls-7{fill:#669b41;}.cls-8{fill:#a96728;}.cls-9{fill:#914115;}.cls-10{fill:#326820;}.cls-11{fill:#0066a6;}</style></defs><g id="Logo_Art" data-name="Logo Art"><path class="cls-1" d="M144.53,42.37,153.39,31a.53.53,0,0,0-.42-.86h-6a.53.53,0,0,0-.43.22l-8.13,11.21V30.64a.53.53,0,0,0-.53-.53h-5a.53.53,0,0,0-.53.53V55.37a.53.53,0,0,0,.53.53h5a.53.53,0,0,0,.53-.53V43.11l13.13,17.53a.53.53,0,0,0,.41.19h5.9a.55.55,0,0,0,.49-.32.54.54,0,0,0-.09-.57Z"/><path class="cls-1" d="M311.64,55.13,299.23,29.77a.52.52,0,0,0-.47-.3H298a.53.53,0,0,0-.48.3l-12.4,25.36a.53.53,0,0,0,0,.52.53.53,0,0,0,.45.25h5.31a.52.52,0,0,0,.48-.31l2-4.27h10.06l2,4.28a.55.55,0,0,0,.49.3h5.22a.52.52,0,0,0,.45-.25A.54.54,0,0,0,311.64,55.13Zm-16.28-8.51,3-6.68,3.07,6.68Z"/><path class="cls-1" d="M173.88,50.93H163.22V30.64a.53.53,0,0,0-.53-.53h-4.95a.53.53,0,0,0-.53.53V55.37a.53.53,0,0,0,.53.53h14.5a.53.53,0,0,0,.52-.4l1.64-3.91a.54.54,0,0,0-.1-.46A.52.52,0,0,0,173.88,50.93Z"/><path class="cls-1" d="M224.93,30.11h-5a.53.53,0,0,0-.53.53V41h-10V30.64a.54.54,0,0,0-.54-.53h-4.94a.54.54,0,0,0-.54.53V55.37a.54.54,0,0,0,.54.53h4.94a.54.54,0,0,0,.54-.53V45.94h10v9.43a.53.53,0,0,0,.53.53h5a.54.54,0,0,0,.54-.53V30.64A.54.54,0,0,0,224.93,30.11Z"/><path class="cls-1" d="M278.92,30.23a.53.53,0,0,0-.52-.44h-.64a.54.54,0,0,0-.45.24l-8.17,12.36L260.93,30a.54.54,0,0,0-.44-.24h-.6a.54.54,0,0,0-.53.44l-4.43,25.05a.56.56,0,0,0,.12.43.53.53,0,0,0,.41.19h4.83a.52.52,0,0,0,.52-.44l2.25-13.17,5.64,8.35a.54.54,0,0,0,.88,0l5.64-8.35,2.25,13.17a.53.53,0,0,0,.53.44h4.82a.53.53,0,0,0,.41-.19.52.52,0,0,0,.12-.43Z"/><path class="cls-1" d="M116.59,29.58A13.39,13.39,0,1,0,130,43,13.4,13.4,0,0,0,116.59,29.58Zm0,21.15A7.77,7.77,0,1,1,124.35,43,7.78,7.78,0,0,1,116.59,50.73Z"/><path class="cls-1" d="M241.23,29.58A13.39,13.39,0,1,0,254.62,43,13.39,13.39,0,0,0,241.23,29.58Zm0,21.15A7.77,7.77,0,1,1,249,43,7.77,7.77,0,0,1,241.23,50.73Z"/><path class="cls-1" d="M189.27,29.77a.53.53,0,0,0-.48-.3h-.72a.55.55,0,0,0-.48.3l-12.4,25.36a.56.56,0,0,0,0,.52.53.53,0,0,0,.46.25H181a.54.54,0,0,0,.49-.31l2-4.27h10l2,4.28a.52.52,0,0,0,.48.3h5.23a.53.53,0,0,0,.45-.25.56.56,0,0,0,0-.52Zm-3.88,16.85,3-6.68,3.08,6.68Z"/><polygon class="cls-2" points="25.49 18.92 31.11 1.68 41.63 16.16 36.01 33.4 25.49 18.92"/><polygon class="cls-3" points="25.49 18.92 7.36 18.94 17.87 33.4 36.01 33.4 25.49 18.92"/><path class="cls-4" d="M43,11.94V0a43.52,43.52,0,0,0-8.09.82Z"/><path class="cls-3" d="M13.42,33.4,2.07,29.71A43.06,43.06,0,0,0,.35,37.66Z"/><path class="cls-5" d="M24.7,68.13l-7,9.66a43,43,0,0,0,7,4.09Z"/><path class="cls-6" d="M61.22,68.13l7,9.66a42.41,42.41,0,0,0,6.07-5.42Z"/><path class="cls-7" d="M72.51,33.4l11.35-3.68a42.33,42.33,0,0,0-3.28-7.44Z"/><polygon class="cls-8" points="14.66 52.2 0 41.53 17.02 36 31.68 46.67 14.66 52.2"/><polygon class="cls-5" points="14.66 52.2 9.07 69.45 26.07 63.93 31.68 46.67 14.66 52.2"/><polygon class="cls-9" points="42.96 72.79 28.28 83.43 28.28 65.53 42.96 54.89 42.96 72.79"/><polygon class="cls-6" points="42.96 72.79 57.64 83.43 57.64 65.56 42.96 54.89 42.96 72.79"/><polygon class="cls-10" points="71.29 52.23 76.88 69.48 59.85 63.95 54.27 46.7 71.29 52.23"/><polygon class="cls-7" points="71.29 52.23 85.95 41.56 68.95 36.03 54.27 46.7 71.29 52.23"/><polygon class="cls-11" points="60.49 18.94 78.63 18.96 68.13 33.4 49.99 33.4 60.49 18.94"/><polygon class="cls-4" points="60.49 18.94 54.87 1.7 44.37 16.16 49.99 33.4 60.49 18.94"/><path class="cls-9" d="M43,86a43.14,43.14,0,0,0,10.67-1.33L43,76.92Z"/><path class="cls-10" d="M83.86,56.29a43.13,43.13,0,0,0,2-10.55L75.23,53.48Z"/><path class="cls-11" d="M68.24,8.21A43.26,43.26,0,0,0,58.83,3L62.9,15.55Z"/><path class="cls-2" d="M17.69,8.21a42.93,42.93,0,0,0-7.84,7.35H23Z"/><path class="cls-8" d="M2.07,56.29A43.37,43.37,0,0,0,6.63,66L10.7,53.48Z"/></g></svg>